<svg width="18" height="18" viewBox="0 0 18 18" fill="none" xmlns="http://www.w3.org/2000/svg">
<path d="M0 0H17.5V17.5H0V0ZM9.49219 13.6719V8.04688H7.85156V13.6328C7.85156 14.4531 7.5 14.6875 6.99219 14.6875C6.40625 14.6875 6.17188 14.2969 5.9375 13.8281L4.57031 14.6484C4.96094 15.4688 5.74219 16.1328 7.03125 16.1328C8.51562 16.1328 9.49219 15.3516 9.49219 13.6719ZM13.3984 16.1328C14.9609 16.1328 16.1328 15.3516 16.1328 13.8672C16.1328 12.5 15.3516 11.875 13.9453 11.2891L13.5156 11.0938C12.8125 10.7812 12.5 10.5859 12.5 10.0781C12.5 9.6875 12.8125 9.375 13.2812 9.375C13.7891 9.375 14.0625 9.60938 14.375 10.0781L15.625 9.25781C15.1172 8.32031 14.3359 7.96875 13.3203 7.96875C11.8359 7.96875 10.8984 8.90625 10.8984 10.1172C10.8984 11.4844 11.6797 12.1094 12.8516 12.6172L13.2812 12.7734C14.0234 13.125 14.4922 13.3203 14.4922 13.8672C14.4922 14.3359 14.0234 14.6875 13.3594 14.6875C12.5391 14.6875 12.1094 14.2578 11.7578 13.7109L10.3906 14.4531C10.8984 15.4297 11.875 16.1328 13.3984 16.1328Z" fill="#FFCC00"/>
</svg>
