<svg width="18" height="20" viewBox="0 0 18 20" fill="none" xmlns="http://www.w3.org/2000/svg">
<path d="M8.75 19.7266C8.47656 19.7266 8.20312 19.6875 7.96875 19.5312L5.54688 18.125C5.19531 17.9297 5.39062 17.8516 5.50781 17.8125C5.97656 17.6172 6.09375 17.6172 6.60156 17.3047C6.64062 17.2656 6.71875 17.3047 6.75781 17.3047L8.63281 18.4375C8.67188 18.4766 8.78906 18.4766 8.82812 18.4375L16.0547 14.2578C16.1328 14.2188 16.1719 14.1406 16.1719 14.0625V5.74219C16.1719 5.66406 16.1328 5.58594 16.0547 5.54688L8.82812 1.36719C8.78906 1.32812 8.67188 1.32812 8.63281 1.36719L1.40625 5.54688C1.32812 5.58594 1.28906 5.66406 1.28906 5.74219V14.0625C1.28906 14.1406 1.32812 14.2188 1.40625 14.2578L3.39844 15.3906C4.45312 15.9375 5.11719 15.3125 5.11719 14.6484V6.44531C5.11719 6.32812 5.19531 6.25 5.3125 6.25H6.25C6.36719 6.25 6.44531 6.32812 6.44531 6.44531V14.6484C6.44531 16.0938 5.66406 16.9141 4.33594 16.9141C3.90625 16.9141 3.55469 16.9141 2.65625 16.4453L0.78125 15.3906C0.3125 15.1172 0 14.6094 0 14.0625V5.74219C0 5.19531 0.3125 4.6875 0.78125 4.41406L7.96875 0.234375C8.4375 0 9.02344 0 9.49219 0.234375L16.7188 4.41406C17.1875 4.6875 17.4609 5.19531 17.4609 5.74219V14.0625C17.4609 14.6094 17.1875 15.1172 16.7188 15.3906L9.49219 19.5312C9.25781 19.6875 8.98438 19.7266 8.75 19.7266ZM14.5703 11.5234C14.5703 9.96094 13.5156 9.57031 11.2891 9.25781C9.0625 8.98438 8.82812 8.82812 8.82812 8.28125C8.82812 7.85156 9.02344 7.30469 10.6641 7.30469C12.1484 7.30469 12.6953 7.61719 12.9297 8.59375C12.9297 8.71094 13.0469 8.78906 13.125 8.78906H14.0625C14.1406 8.78906 14.1797 8.75 14.2188 8.71094C14.2578 8.67188 14.2578 8.59375 14.2578 8.55469C14.1406 6.83594 12.9688 6.01562 10.6641 6.01562C8.59375 6.01562 7.38281 6.875 7.38281 8.35938C7.38281 9.92188 8.59375 10.3516 10.5859 10.5469C12.9297 10.7812 13.125 11.1328 13.125 11.6016C13.125 12.4219 12.4609 12.7344 10.9766 12.7344C9.0625 12.7344 8.63281 12.2656 8.47656 11.3281C8.47656 11.2109 8.39844 11.1328 8.28125 11.1328H7.34375C7.22656 11.1328 7.14844 11.25 7.14844 11.3672C7.14844 12.5781 7.8125 14.0234 10.9766 14.0234C13.2422 14.0234 14.5703 13.125 14.5703 11.5234Z" fill="#34C759"/>
</svg>
