<svg width="20" height="19" viewBox="0 0 20 19" fill="none" xmlns="http://www.w3.org/2000/svg">
<path d="M16.3281 6.05469C18.4375 6.75781 20 7.92969 20 9.10156C20 10.3516 18.3594 11.5625 16.0938 12.3047C15.9766 12.3438 15.8594 12.3828 15.7422 12.4219C15.7812 12.5781 15.8203 12.7734 15.8594 12.9297C16.2891 15.1953 15.9375 17.0312 14.8828 17.6562C13.8672 18.2422 12.2266 17.6562 10.5469 16.2109C10.3516 16.0547 10.1953 15.8984 10 15.7422C9.88281 15.8594 9.72656 15.9766 9.60938 16.0938C7.89062 17.6172 6.09375 18.2422 5.03906 17.6172C4.02344 17.0312 3.71094 15.3125 4.10156 13.1641C4.17969 12.9297 4.21875 12.6953 4.25781 12.4609C4.10156 12.4219 3.90625 12.3438 3.75 12.3047C1.5625 11.5625 0 10.3125 0 9.10156C0 7.92969 1.48438 6.79688 3.55469 6.05469C3.78906 5.97656 4.02344 5.89844 4.29688 5.82031C4.21875 5.625 4.17969 5.39062 4.14062 5.19531C3.71094 2.96875 4.02344 1.21094 5.03906 0.625C6.09375 0 7.89062 0.664062 9.6875 2.22656C9.76562 2.34375 9.88281 2.42188 10 2.53906C10.1562 2.38281 10.3125 2.22656 10.4688 2.10938C12.1875 0.625 13.8672 0 14.8828 0.585938C15.9375 1.21094 16.25 3.08594 15.7812 5.39062C15.7422 5.54688 15.7031 5.70312 15.7031 5.85938C15.8984 5.89844 16.0938 5.97656 16.3281 6.05469ZM11.0156 2.73438C10.8594 2.85156 10.7422 3.00781 10.5859 3.125C11.1719 3.78906 11.7188 4.49219 12.2266 5.23438C13.125 5.3125 13.9844 5.42969 14.8828 5.625C14.9219 5.50781 14.9219 5.39062 14.9609 5.23438C15.3906 3.24219 15.1172 1.67969 14.4531 1.32812C13.8281 0.976562 12.5 1.44531 11.0156 2.73438ZM6.52344 11.1328C6.32812 10.7812 6.13281 10.4688 5.9375 10.1172C5.70312 10.7031 5.50781 11.2891 5.3125 11.8359C5.89844 11.9922 6.52344 12.0703 7.14844 12.1484C6.91406 11.7969 6.71875 11.4844 6.52344 11.1328ZM5.3125 6.44531C5.50781 6.99219 5.70312 7.53906 5.9375 8.125C6.13281 7.77344 6.32812 7.46094 6.52344 7.10938C6.71875 6.79688 6.91406 6.44531 7.10938 6.13281C6.48438 6.21094 5.89844 6.28906 5.3125 6.44531ZM6.40625 9.14062C6.67969 9.64844 6.95312 10.1953 7.22656 10.7031C7.53906 11.2109 7.85156 11.7188 8.20312 12.2266C8.78906 12.2656 9.375 12.3047 10 12.3047C10.5859 12.3047 11.2109 12.2656 11.7969 12.2266C12.1094 11.7188 12.4219 11.2109 12.7344 10.7031C13.0469 10.1953 13.3203 9.64844 13.5547 9.10156C13.3203 8.55469 13.0078 8.04688 12.7344 7.53906C12.4219 7.03125 12.1094 6.52344 11.7578 6.01562C11.2109 5.97656 10.5859 5.9375 10 5.9375C9.375 5.9375 8.78906 5.97656 8.20312 6.01562C7.85156 6.52344 7.53906 7.03125 7.22656 7.53906C6.95312 8.04688 6.64062 8.59375 6.40625 9.14062ZM13.4375 11.1328C13.2422 11.4453 13.0469 11.7969 12.8516 12.1094C13.4766 12.0703 14.0625 11.9531 14.6875 11.7969C14.4922 11.2109 14.2578 10.6641 14.0234 10.0781C13.8281 10.4297 13.6719 10.7812 13.4375 11.1328ZM14.0234 8.125C14.2578 7.57812 14.4531 7.03125 14.6484 6.44531C14.1016 6.32812 13.4766 6.21094 12.8516 6.13281C13.0469 6.44531 13.2422 6.79688 13.4375 7.10938C13.6328 7.46094 13.8281 7.77344 14.0234 8.125ZM10 3.75C9.60938 4.17969 9.21875 4.64844 8.82812 5.15625C9.60938 5.11719 10.3906 5.11719 11.1328 5.15625C10.7812 4.64844 10.3906 4.17969 10 3.75ZM5.46875 1.32812C4.84375 1.71875 4.60938 3.125 4.96094 5C5 5.23438 5.03906 5.42969 5.11719 5.625C5.97656 5.42969 6.83594 5.3125 7.73438 5.23438C8.24219 4.49219 8.78906 3.78906 9.41406 3.125C9.29688 3.04688 9.21875 2.96875 9.10156 2.85156C7.57812 1.52344 6.13281 0.976562 5.46875 1.32812ZM4.49219 11.6406C4.76562 10.7812 5.07812 9.92188 5.46875 9.14062C5.11719 8.32031 4.76562 7.5 4.53125 6.64062C4.29688 6.71875 4.0625 6.75781 3.82812 6.83594C2.07031 7.46094 0.820312 8.39844 0.820312 9.10156C0.898438 9.57031 1.17188 10 1.5625 10.2734C2.22656 10.8203 3.20312 11.2109 4.02344 11.4844C4.17969 11.5625 4.33594 11.6016 4.49219 11.6406ZM9.0625 15.4688C9.17969 15.3516 9.29688 15.2344 9.41406 15.1172C8.82812 14.4531 8.24219 13.75 7.73438 13.0469C6.83594 12.9688 5.97656 12.8516 5.07812 12.6562C5.03906 12.8516 5 13.0859 4.96094 13.3203C4.60938 15.1562 4.84375 16.5234 5.46875 16.9141C5.9375 17.0703 6.40625 17.0703 6.83594 16.8359C7.65625 16.5234 8.39844 16.0547 9.0625 15.4688ZM10 14.5312C10.4297 14.0625 10.8203 13.5938 11.1719 13.0859C10.7812 13.125 10.3906 13.125 10 13.125C9.60938 13.125 9.21875 13.125 8.82812 13.0859C9.21875 13.6328 9.60938 14.1016 10 14.5312ZM15.1172 15.7031C15.2344 14.8438 15.1953 13.9453 15.0391 13.0859C15 12.9297 14.9609 12.7734 14.9219 12.6172C14.0234 12.8125 13.1641 12.9688 12.2656 13.0469C11.7578 13.7891 11.2109 14.4531 10.5859 15.1172C10.7812 15.2734 10.9375 15.4297 11.0938 15.5859C12.5391 16.7969 13.8672 17.2656 14.4922 16.9141C14.8438 16.6016 15.0781 16.1719 15.1172 15.7031ZM15.8203 11.4844C17.7734 10.8594 19.1406 9.84375 19.1406 9.10156C19.1406 8.39844 17.8516 7.46094 16.0547 6.83594C15.8594 6.75781 15.6641 6.71875 15.4688 6.64062C15.1953 7.5 14.8828 8.32031 14.4922 9.10156C14.8828 9.92188 15.2344 10.7422 15.5078 11.6016C15.625 11.5625 15.7031 11.5234 15.8203 11.4844ZM10 10.8984C8.98438 10.8984 8.20312 10.1172 8.20312 9.10156C8.20312 8.125 8.98438 7.34375 10 7.34375C10.9766 7.34375 11.7578 8.125 11.7578 9.10156C11.7578 10.1172 10.9766 10.8984 10 10.8984Z" fill="#128CEF"/>
</svg>
