<svg width="32" height="32" viewBox="0 0 32 32" fill="none" xmlns="http://www.w3.org/2000/svg">
<g clip-path="url(#clip0_2676_65)">
<path d="M31.3321 22.2622L31.3496 22.2528L17.7033 8.5337L17.6854 2.84303C17.684 2.39158 17.3803 1.99706 16.9442 1.88023L11.0834 0.310059L10.3791 1.01567L13.1829 3.8119C13.574 4.20194 13.5748 4.8352 13.1847 5.22623L11.1771 7.23849C10.787 7.62953 10.1537 7.63021 9.76278 7.24L6.95878 4.44139L6.25586 5.13894L7.82731 10.9966C7.94419 11.4323 8.33824 11.7358 8.7893 11.7375L14.3031 11.7588L14.2613 11.7924L27.9992 25.5977L28.0167 25.5815C28.9364 26.4757 30.4056 26.4757 31.3078 25.5641C32.2249 24.6591 32.2289 23.1873 31.3321 22.2622ZM30.4434 24.6928C30.0353 25.1022 29.3755 25.1022 28.9729 24.6928C28.5663 24.2874 28.5635 23.633 28.9702 23.225C29.3756 22.817 30.0367 22.817 30.4447 23.2223C30.8473 23.6276 30.8527 24.2861 30.4434 24.6928Z" fill="black"/>
<path d="M2.941 14.5248C3.05275 14.5463 5.66517 15.0675 6.2267 18.0151C5.51704 18.7679 5.07399 19.8196 5.07399 20.9871C5.07399 21.0005 5.07668 21.01 5.07668 21.0167H12.5233C12.5233 21.0059 12.5233 20.9965 12.5233 20.9871C12.5233 19.8196 12.0803 18.7679 11.372 18.0151C11.9335 15.0688 14.5445 14.5463 14.655 14.5248C14.8987 14.4776 15.0644 14.2447 15.0199 13.9983C14.9755 13.7546 14.7412 13.5903 14.4947 13.6333C14.4638 13.6401 11.4514 14.2218 10.5909 17.3782C10.0591 17.0577 9.44766 16.8732 8.7973 16.8732C8.14957 16.8732 7.53822 17.059 7.00497 17.3809C6.1418 14.2218 3.13353 13.6428 3.09988 13.636C2.85616 13.5929 2.62319 13.7572 2.57874 14.001C2.5303 14.2447 2.69592 14.4776 2.941 14.5248Z" fill="black"/>
<path d="M17.1725 18.147C16.856 18.0474 16.5194 18.2265 16.4184 18.5442C16.4184 18.5442 15.6818 20.9196 15.5256 21.43C15.2065 21.5162 14.2302 21.7922 13.5569 21.978C13.5313 21.8703 13.5125 21.7639 13.4869 21.6589H4.10648C4.08357 21.764 4.06203 21.8703 4.03912 21.978C3.36585 21.7882 2.38819 21.5161 2.07043 21.43C1.91156 20.9196 1.1763 18.5429 1.1763 18.5429C1.07935 18.2264 0.741371 18.0459 0.424931 18.1456C0.105806 18.2413 -0.0719848 18.5779 0.0277105 18.897L1.11443 22.4089L3.86551 23.1752C3.84803 23.4283 3.83186 23.6855 3.83186 23.9481C3.83186 24.2686 3.85209 24.5878 3.88037 24.8988L1.13054 26.1296L0.271424 30.9827C0.214865 31.3086 0.432984 31.6237 0.761598 31.6803C1.08746 31.7382 1.40122 31.5227 1.45778 31.1942C1.45778 31.1942 2.11089 27.5166 2.20515 26.9672C2.4704 26.8473 3.34032 26.4569 4.08363 26.1296C4.73405 28.9063 6.60042 30.9154 8.80071 30.9154C10.9997 30.9154 12.8687 28.9091 13.5205 26.1296C14.2598 26.4569 15.1311 26.8473 15.3963 26.9672C15.4892 27.5126 16.1423 31.1942 16.1423 31.1942C16.2003 31.5227 16.5126 31.7382 16.8426 31.6803C17.1711 31.6237 17.3852 31.3127 17.3301 30.9827L16.4696 26.1296L13.7225 24.9029C13.7508 24.5918 13.7697 24.2727 13.7697 23.9536C13.7697 23.691 13.7535 23.4324 13.736 23.1779L16.4858 22.4131L17.5738 18.8998C17.668 18.5806 17.4889 18.244 17.1725 18.147Z" fill="black"/>
</g>
<defs>
<clipPath id="clip0_2676_65">
<rect width="32" height="32" fill="white"/>
</clipPath>
</defs>
</svg>
