<svg width="24" height="24" viewBox="0 0 24 24" fill="none" xmlns="http://www.w3.org/2000/svg">
<g clip-path="url(#clip0_2405_73)">
<path d="M3.33933 17C2.98494 16.3872 2.69671 15.7388 2.47923 15.066C2.406 14.8394 2.51686 14.6 2.71242 14.4642C3.05207 14.2283 3.34056 13.9239 3.55836 13.5689C3.84779 13.0972 4.00109 12.5546 4.0013 12.0011C4.00151 11.4477 3.84861 10.905 3.55953 10.433C3.3418 10.0776 3.05322 9.77268 2.71334 9.53648C2.51824 9.40089 2.40752 9.16208 2.48015 8.93588C2.91416 7.58411 3.63137 6.34029 4.58388 5.28751C4.74347 5.11112 5.00602 5.0875 5.22122 5.18886C5.59556 5.36517 6.00373 5.46278 6.42031 5.47379C6.97367 5.48841 7.52028 5.34964 7.99966 5.07284C8.47904 4.79604 8.87248 4.392 9.13646 3.90545C9.33518 3.53915 9.45469 3.13684 9.48913 2.72449C9.50893 2.48745 9.66063 2.27187 9.89317 2.22183C11.2813 1.92309 12.7172 1.9237 14.1051 2.22362C14.3373 2.27382 14.4888 2.48917 14.5087 2.72596C14.5432 3.13846 14.6629 3.54087 14.8619 3.90721C15.1261 4.39363 15.5197 4.79748 15.9992 5.07407C16.4786 5.35065 17.0253 5.48919 17.5786 5.47436C17.995 5.46319 18.4031 5.36548 18.7772 5.18912C18.9925 5.08764 19.2552 5.11126 19.4148 5.28785C19.8803 5.80297 20.2984 6.37427 20.6593 7.00001C21.0211 7.62576 21.3067 8.27384 21.5198 8.93435C21.5929 9.16076 21.482 9.39996 21.2866 9.53563C20.9468 9.77152 20.6582 10.076 20.4403 10.4311C20.1509 10.9028 19.9976 11.4454 19.9974 11.9989C19.9971 12.5523 20.15 13.0951 20.4391 13.567C20.6569 13.9225 20.9454 14.2273 21.2853 14.4635C21.4804 14.5991 21.5911 14.8379 21.5185 15.0641C21.0845 16.4159 20.3673 17.6597 19.4148 18.7125C19.2552 18.8889 18.9926 18.9125 18.7774 18.8112C18.4031 18.6348 17.9949 18.5372 17.5784 18.5262C17.025 18.5116 16.4784 18.6504 15.999 18.9272C15.5196 19.204 15.1262 19.608 14.8622 20.0946C14.6635 20.4609 14.544 20.8632 14.5095 21.2755C14.4897 21.5126 14.338 21.7281 14.1055 21.7782C12.7174 22.0769 11.2814 22.0763 9.89358 21.7764C9.66131 21.7262 9.50983 21.5108 9.48998 21.274C9.45542 20.8616 9.33571 20.4591 9.13675 20.0928C8.87257 19.6064 8.47897 19.2025 7.9995 18.9259C7.52003 18.6494 6.97338 18.5108 6.42005 18.5257C6.0037 18.5368 5.59579 18.6345 5.22168 18.8108C5.00626 18.9123 4.74338 18.8885 4.58379 18.7118C4.10995 18.187 3.69274 17.6133 3.33933 17ZM8.99933 17.196C9.97007 17.7559 10.7214 18.6243 11.1371 19.6582C11.2114 19.8428 11.3774 19.9795 11.5761 19.9902C11.8578 20.0053 12.1399 20.0057 12.4216 19.9909C12.6203 19.9805 12.7863 19.8438 12.8605 19.6593C13.2765 18.6252 14.0282 17.7568 14.9993 17.197C15.9698 16.6355 17.098 16.4186 18.2019 16.5754C18.3988 16.6033 18.6 16.528 18.7084 16.3612C18.862 16.1248 19.0027 15.8802 19.1303 15.6288C19.2202 15.4515 19.1848 15.2397 19.0622 15.0832C18.3747 14.206 17.9985 13.1208 17.9993 12C17.9993 10.8546 18.3877 9.77779 19.0616 8.91755C19.1845 8.7607 19.2196 8.54822 19.1291 8.37075C19.001 8.1198 18.8599 7.87569 18.7065 7.63939C18.598 7.47238 18.3965 7.39674 18.1993 7.42471C17.0964 7.58121 15.9692 7.36461 14.9993 6.80401C14.0286 6.24411 13.2773 5.3757 12.8615 4.3418C12.7873 4.15719 12.6213 4.02051 12.4226 4.00984C12.1409 3.99471 11.8588 3.99433 11.577 4.00909C11.3783 4.01949 11.2124 4.15616 11.1381 4.34073C10.7221 5.37481 9.97045 6.24326 8.99933 6.80301C8.02899 7.36443 6.90091 7.58139 5.79721 7.42471C5.6001 7.39673 5.39863 7.47229 5.29026 7.63929C5.13686 7.87567 4.99607 8.12 4.86848 8.37126C4.77849 8.54849 4.81388 8.76036 4.93649 8.91682C5.62394 9.79409 6.00013 10.8792 5.99933 12C5.99933 13.1454 5.61093 14.2222 4.93706 15.0825C4.81418 15.2393 4.77901 15.4518 4.8696 15.6293C4.99769 15.8802 5.13875 16.1243 5.2922 16.3606C5.40066 16.5276 5.60216 16.6033 5.79933 16.5753C6.90223 16.4188 8.02947 16.6354 8.99933 17.196ZM11.9993 15C11.2037 15 10.4406 14.6839 9.87801 14.1213C9.3154 13.5587 8.99933 12.7957 8.99933 12C8.99933 11.2044 9.3154 10.4413 9.87801 9.87869C10.4406 9.31608 11.2037 9.00001 11.9993 9.00001C12.795 9.00001 13.558 9.31608 14.1206 9.87869C14.6833 10.4413 14.9993 11.2044 14.9993 12C14.9993 12.7957 14.6833 13.5587 14.1206 14.1213C13.558 14.6839 12.795 15 11.9993 15ZM11.9993 13C12.2645 13 12.5189 12.8946 12.7064 12.7071C12.894 12.5196 12.9993 12.2652 12.9993 12C12.9993 11.7348 12.894 11.4804 12.7064 11.2929C12.5189 11.1054 12.2645 11 11.9993 11C11.7341 11 11.4798 11.1054 11.2922 11.2929C11.1047 11.4804 10.9993 11.7348 10.9993 12C10.9993 12.2652 11.1047 12.5196 11.2922 12.7071C11.4798 12.8946 11.7341 13 11.9993 13Z" fill="#128CEF"/>
</g>
<defs>
<clipPath id="clip0_2405_73">
<rect width="24" height="24" fill="white"/>
</clipPath>
</defs>
</svg>
