<svg width="32" height="32" viewBox="0 0 32 32" fill="none" xmlns="http://www.w3.org/2000/svg">
<path d="M28 23.6667C29.1046 23.6667 30 22.7712 30 21.6667V5C30 3.89543 29.1046 3 28 3H4C2.89543 3 2 3.89543 2 5V21.6667C2 22.7712 2.89543 23.6667 4 23.6667H14.3333V26.8889H12.1111C11.0065 26.8889 10.1111 27.7843 10.1111 28.8889V29.3333H21.8889V28.8889C21.8889 27.7843 20.9935 26.8889 19.8889 26.8889H17.6667V23.6667H28ZM3.88889 4.88889H28V21.6667H3.88889V4.88889ZM20.5983 17.5333C20.6129 17.6643 20.5983 17.8194 20.5643 17.965L19.3276 16.8252L18.212 18.0427L19.4633 19.1776C19.3178 19.2261 19.1772 19.26 19.0317 19.26C18.6 19.2746 18.2313 19.1436 17.9161 18.8574C17.6009 18.5568 17.4311 18.2076 17.4166 17.7759C17.4166 17.6256 17.4311 17.4558 17.4651 17.3102L17.1644 17.0241L15.365 15.3799L12.3191 18.7362C12.1348 18.9836 11.8487 19.1533 11.5188 19.1533C10.9852 19.1533 10.5536 18.7217 10.5536 18.1881C10.5536 17.902 10.6651 17.64 10.8833 17.4558L14.0457 14.177L12.1348 12.4261C11.9844 12.494 11.8147 12.528 11.6691 12.528C11.2374 12.5426 10.8688 12.4116 10.5536 12.1254C10.2383 11.8393 10.0686 11.4901 10.054 11.0584C10.0394 10.9274 10.054 10.7723 10.088 10.6268L11.3393 11.7617L12.4452 10.5491L11.1939 9.41422C11.3249 9.36567 11.48 9.33178 11.6256 9.33178C12.0572 9.31722 12.4259 9.44822 12.7411 9.73433C13.0563 10.0157 13.2261 10.3842 13.2407 10.8159C13.2552 10.9614 13.2407 11.102 13.2067 11.2476L15.1759 13.0518L16.6164 11.4949L14.463 9.59844L16.4177 7.37222L21.9518 12.2418L19.9971 14.468L17.7854 12.5182L16.3934 14.1624L18.5567 16.1413C18.7022 16.0928 18.8428 16.0589 18.9883 16.0589C19.42 16.0443 19.7887 16.1753 20.1039 16.4614C20.4189 16.7428 20.5887 17.092 20.5983 17.5333Z" fill="black" stroke="black" stroke-width="0.00666667"/>
</svg>
