<svg width="38" height="35" viewBox="0 0 38 35" fill="none" xmlns="http://www.w3.org/2000/svg">
<g clip-path="url(#clip0_2887_23)">
<path d="M38 35V0H8L0 8V35H38Z" fill="#128CEF"/>
<path d="M10.261 25L12.079 10.6H15.535L17.353 25H15.193L14.86 21.535H12.763L12.43 25H10.261ZM12.961 19.663H14.662L14.347 16.495L14.059 12.463H13.555L13.267 16.495L12.961 19.663Z" fill="white"/>
<path d="M21.81 25V10.6H24.672C25.812 10.6 26.643 10.837 27.165 11.311C27.687 11.779 27.951 12.556 27.957 13.642C27.957 13.984 27.957 14.29 27.957 14.56C27.957 14.83 27.951 15.094 27.939 15.352C27.909 15.946 27.783 16.417 27.561 16.765C27.339 17.113 26.997 17.365 26.535 17.521V17.917C27.015 18.073 27.366 18.328 27.588 18.682C27.816 19.03 27.939 19.51 27.957 20.122C27.969 20.452 27.975 20.758 27.975 21.04C27.975 21.316 27.969 21.622 27.957 21.958C27.915 23.038 27.642 23.815 27.138 24.289C26.634 24.763 25.812 25 24.672 25H21.81ZM23.916 23.137H24.672C25.062 23.137 25.353 23.035 25.545 22.831C25.743 22.627 25.845 22.327 25.851 21.931C25.857 21.631 25.86 21.346 25.86 21.076C25.86 20.8 25.857 20.515 25.851 20.221C25.845 19.645 25.749 19.237 25.563 18.997C25.377 18.757 25.071 18.637 24.645 18.637H23.916V23.137ZM23.916 16.774H24.663C25.053 16.774 25.347 16.648 25.545 16.396C25.743 16.144 25.842 15.778 25.842 15.298C25.854 14.992 25.86 14.698 25.86 14.416C25.86 14.134 25.854 13.84 25.842 13.534C25.842 13.18 25.743 12.913 25.545 12.733C25.347 12.553 25.056 12.463 24.672 12.463H23.916V16.774Z" fill="black"/>
</g>
<defs>
<clipPath id="clip0_2887_23">
<rect width="38" height="35" fill="white"/>
</clipPath>
</defs>
</svg>
