<svg width="362" height="33" viewBox="0 0 362 33" fill="none" xmlns="http://www.w3.org/2000/svg">
<path opacity="0.7" d="M362 6.75195H354.427L348.905 16.3154L354.427 25.8789H362V33H349.767L353.527 26.4863L348.006 16.9229H336.963L331.442 26.4863L335.203 33H0V0H335.3L331.892 6.17871L337.413 15.7422L348.096 15.9502L353.258 6.59375L349.451 0H362V6.75195ZM347.429 17.9219L352.373 26.4854L348.611 33H336.357L332.597 26.4854L337.54 17.9219H347.429ZM362 7.75195V24.8779H355.004L350.06 16.3154L355.004 7.75195H362ZM352.108 6.60449L347.511 14.9375L337.996 14.752L333.039 6.16699L336.441 0H348.296L352.108 6.60449Z" fill="#128CEF"/>
</svg>
