<svg width="308" height="23" viewBox="0 0 308 23" fill="none" xmlns="http://www.w3.org/2000/svg">
<path opacity="0.7" d="M308 1.75H298.388L292.866 11.3135L298.388 20.877H308V23H296.562L297.488 21.3965L291.967 11.833H280.924L275.403 21.3965L276.329 23H0V0H276.503L275.853 1.17871L281.374 10.7422L292.057 10.9502L297.219 1.59473L296.298 0H308V1.75ZM291.39 12.833L296.334 21.3955L295.407 23H277.483L276.558 21.3965L281.501 12.833H291.39ZM308 2.75V19.877H298.965L294.021 11.3135L298.965 2.75H308ZM296.069 1.60449L291.472 9.93848L281.957 9.75293L277.001 1.16797L277.646 0H295.144L296.069 1.60449Z" fill="#128CEF"/>
</svg>
